<?xml version="1.0" encoding="utf-8"?>
<!-- Generator: Adobe Illustrator 26.0.1, SVG Export Plug-In . SVG Version: 6.00 Build 0)  -->
<svg version="1.1" id="softwirelogo" xmlns="http://www.w3.org/2000/svg" xmlns:xlink="http://www.w3.org/1999/xlink" x="0px"
	 y="0px" viewBox="0 0 670 137.4" style="enable-background:new 0 0 670 137.4;" xml:space="preserve">
<style type="text/css">
	.st0{fill:#1EA6BC;}
	.st1{fill-rule:evenodd;clip-rule:evenodd;fill:#1EA6BC;}
</style>
<path class="st0" d="M446.8,134.5l28.5-91.7h-26.5l-15.8,53.7L417,42.8h-23.9l-15.6,53.7l-16.1-53.7h-27.5l28.5,91.7h26.9l15.4-49.6
	l15.4,49.6H446.8z"/>
<path class="st0" d="M548.2,42.6h-29.1v90.8h29.1V93.7c0-17.6,12.6-27.7,29.5-26.2V41.2c-13,0.2-23.2,6.1-29.5,16.7V42.6z"/>
<path class="st0" d="M624,41.6c-28.1,0-47.3,18.5-47.3,46.6c0,27.6,18.5,46.1,48.2,46.1c16.7,0,30.3-5.9,39.6-16l-15.3-15
	c-6.1,6.1-13.8,9.3-21.7,9.3c-10.8,0-18.5-6.1-21.4-16.8h63.8C671.8,62.6,656,41.6,624,41.6z M605.5,80.1
	c1.9-10.9,8.8-18.4,18.9-18.4c10.4,0,17.5,7.2,17.5,18.4H605.5z"/>
<path class="st0" d="M54.2,14.1c-28.3,0-47,13.8-47,35.5c0,41.8,62.3,29.3,62.3,50.2c0,6.7-5.9,12.3-15.3,12.3
	c-12.3,0-30.5-9.1-42.6-19.7L0,115.5c14,11.5,34.2,21.9,53.9,21.9c26.3,0,47.1-15.5,47.1-39c0-42.6-62.3-31-62.3-51.4
	c0-5.7,5.2-8.6,13-8.6c9.6,0,28.3,5.1,40.7,12.3l8.3-23.4C88.6,19.3,71.2,14.1,54.2,14.1z"/>
<path class="st0" d="M153.6,41.6c-29.8,0-49.7,18.4-49.7,46.3c0,28,19.9,46.5,49.7,46.5c29.6,0,49.5-18.5,49.5-46.5
	C203.1,59.9,183.2,41.6,153.6,41.6z M153.6,64.6c12,0,20.2,9.6,20.2,23.6c0,14.1-8.3,23.6-20.2,23.6c-12.1,0-20.4-9.4-20.4-23.6
	C133.2,74.2,141.4,64.6,153.6,64.6z"/>
<path class="st0" d="M509.2,133.3V42.6h-29v90.8H509.2z"/>
<path class="st1" d="M326.1,108.3c-4.4,1.9-8.3,3-11.3,3c-5.4,0.2-10.7-2.9-10.7-9.9v-36h26V42.8h-26.3V14h-26.4v29h-36.1l0-9.6
	c0-7.1,5.3-10.1,10.7-9.9c3,0,6.9,1.2,11.3,3l5.7-20.2C262.5,2.4,253.6,0,244.8,0c-17.5,0-30.1,9.9-30.1,28.8V43h-12.6v22.4h12.6
	v69.4h26.4V65.3h36.4v40.6c0,18.9,12.6,28.8,30.1,28.8c8.8,0,17.7-2.4,24.2-6.2L326.1,108.3z"/>
<polygon class="st1" points="480.2,14 480.2,38 519.1,26.1 "/>
</svg>
